<?xml version="1.0" encoding="utf-8"?>
<!-- Generator: Adobe Illustrator 16.0.0, SVG Export Plug-In . SVG Version: 6.00 Build 0)  -->
<!DOCTYPE svg PUBLIC "-//W3C//DTD SVG 1.1//EN" "http://www.w3.org/Graphics/SVG/1.1/DTD/svg11.dtd">
<svg version="1.1" id="Layer_1" xmlns="http://www.w3.org/2000/svg" xmlns:xlink="http://www.w3.org/1999/xlink" x="0px" y="0px"
	 width="640px" height="480px" viewBox="0 0 640 480" enable-background="new 0 0 640 480" xml:space="preserve">
<path fill="none" stroke="#9CF214" stroke-width="40" stroke-miterlimit="10" d="M529.451,122.992
	C529.451,122.992,529.451,122.84,529.451,122.992c0,116.172-93.804,210.352-209.976,210.352S109.5,239.164,109.5,122.992
	c0-0.152,0,0,0,0"/>
<path fill="none" stroke="#FF2400" stroke-width="40" stroke-miterlimit="10" d="M477.856,125.975
	C477.856,125.975,477.856,125.861,477.856,125.975c0,87.515-70.664,158.462-158.179,158.462
	c-87.514,0-158.178-70.948-158.178-158.462c0-0.114,0,0,0,0"/>
<path fill="none" stroke="#008000" stroke-width="40" stroke-miterlimit="10" d="M577.71,123.008
	C577.71,123.008,577.71,122.82,577.71,123.008c0,143.076-115.528,259.067-258.604,259.067
	C176.028,382.075,60.5,266.084,60.5,123.008c0-0.188,0,0,0,0"/>
<path fill="#00FF00" d="M217.983,158.444c-22.366-1.382-29.061-11.924-28.056-24.353c1.006-12.43,9.328-22.04,31.696-20.657
	c14.626,0.903,31.35,14.725,37.929,21.828c0,0,0.638,5.349,0.004,5.99C252.693,148.175,232.419,159.337,217.983,158.444z"/>
<path fill="#B33E96" d="M268.091,217.099c-16.875,12.916-30.147,9.649-39.529,0.274c-9.382-9.38-11.323-21.314,5.551-34.232
	c11.034-8.447,34.031-9.098,44.43-8.182c0,0,4.792,3.371,4.865,4.218C284.194,188.312,278.98,208.761,268.091,217.099z"/>
<path fill="#0000FF" d="M343.707,230.798c-0.156,19.612-11.76,26.125-26.005,26.043c-14.247-0.09-25.742-6.742-25.588-26.353
	c0.1-12.822,14.806-28.303,22.493-34.497c0,0,6.063-0.894,6.836-0.382C329.779,201.157,343.803,218.144,343.707,230.798z"/>
<path fill="#FFDD15" d="M404.254,183.984c16.444,13.333,14.112,25.217,4.428,34.357c-9.685,9.135-23.058,12.069-39.499-1.263
	c-10.754-8.717-13.894-28.654-13.937-37.794c0,0,3.332-4.521,4.287-4.672C369.842,172.976,393.639,175.379,404.254,183.984z"/>
<path fill="#7F3F97" d="M423.616,113.364c22.332,1.79,28.772,12.452,27.473,24.861c-1.301,12.408-9.849,21.865-32.183,20.073
	c-14.599-1.17-30.991-15.295-37.4-22.515c0,0-0.508-5.359,0.139-5.988C388.672,123,409.208,112.208,423.616,113.364z"/>
</svg>
