<?xml version="1.0" encoding="utf-8"?>
<!-- Generator: Adobe Illustrator 16.0.0, SVG Export Plug-In . SVG Version: 6.00 Build 0)  -->
<!DOCTYPE svg PUBLIC "-//W3C//DTD SVG 1.1//EN" "http://www.w3.org/Graphics/SVG/1.1/DTD/svg11.dtd">
<svg version="1.1" id="Layer_2" xmlns="http://www.w3.org/2000/svg" xmlns:xlink="http://www.w3.org/1999/xlink" x="0px" y="0px"
	 width="325px" height="300px" viewBox="0 0 325 300" enable-background="new 0 0 325 300" xml:space="preserve">
<g>
	<g>
		<defs>
			<circle id="SVGID_1_" cx="158.6" cy="152.662" r="138.577"/>
		</defs>
		<clipPath id="SVGID_2_">
			<use xlink:href="#SVGID_1_"  overflow="visible"/>
		</clipPath>
		<circle clip-path="url(#SVGID_2_)" fill="#146314" cx="161" cy="86.5" r="204.739"/>
		<path clip-path="url(#SVGID_2_)" fill="#146314" d="M365.739,86.5h-0.5c0,56.4-22.859,107.457-59.82,144.419
			C268.457,267.88,217.4,290.739,161,290.739c-56.401,0-107.458-22.859-144.419-59.82c-36.961-36.962-59.82-88.018-59.82-144.419
			S-20.38-20.958,16.581-57.919c36.962-36.961,88.018-59.82,144.419-59.82c56.4,0,107.457,22.859,144.419,59.82
			c36.961,36.962,59.82,88.018,59.82,144.419H365.739h0.5c0-113.351-91.889-205.239-205.239-205.239
			C47.649-118.739-44.239-26.851-44.239,86.5c0,113.351,91.889,205.239,205.239,205.239S366.239,199.851,366.239,86.5H365.739z"/>
		<circle clip-path="url(#SVGID_2_)" fill="#00FF00" cx="161" cy="86.5" r="186.383"/>
		<path clip-path="url(#SVGID_2_)" fill="#00FF00" d="M347.383,86.5h-0.5c0,51.332-20.805,97.799-54.443,131.439
			c-33.641,33.639-80.107,54.443-131.439,54.443c-51.332,0-97.799-20.805-131.439-54.443C-4.078,184.299-24.883,137.832-24.883,86.5
			c0-51.332,20.805-97.799,54.444-131.439C63.201-78.578,109.668-99.383,161-99.383c51.332,0,97.799,20.805,131.439,54.444
			c33.639,33.64,54.443,80.107,54.443,131.439H347.383h0.5c0-103.212-83.67-186.882-186.883-186.883
			c-103.212,0-186.882,83.67-186.883,186.883c0,103.213,83.67,186.883,186.883,186.883c103.213,0,186.883-83.67,186.883-186.883
			H347.383z"/>
		<circle clip-path="url(#SVGID_2_)" fill="#FFFFFF" cx="161" cy="86.5" r="168.026"/>
		<circle clip-path="url(#SVGID_2_)" fill="#FF0000" cx="160.859" cy="83.471" r="153.097"/>
		<path clip-path="url(#SVGID_2_)" fill="#FFFFFF" d="M256.373-36.178l-0.312,0.391c37.749,30.135,57.399,74.537,57.4,119.357
			c-0.001,33.381-10.9,66.988-33.345,95.104c-30.136,37.75-74.537,57.399-119.356,57.4c-33.381-0.001-66.988-10.9-95.104-33.345
			c-37.75-30.136-57.4-74.537-57.401-119.356c0-33.381,10.9-66.987,33.345-95.104c30.135-37.75,74.537-57.4,119.357-57.401
			c33.38,0,66.987,10.9,95.104,33.345L256.373-36.178l0.312-0.391c-28.297-22.59-62.13-33.564-95.727-33.563
			c-45.11,0-89.808,19.782-120.138,57.777C18.229,15.943,7.255,49.775,7.256,83.373c-0.001,45.109,19.781,89.807,57.777,120.138
			c28.297,22.59,62.13,33.563,95.728,33.563c45.109,0,89.807-19.781,120.138-57.777c22.59-28.297,33.563-62.129,33.563-95.727
			c0-45.11-19.781-89.808-57.777-120.138L256.373-36.178z"/>
		<path clip-path="url(#SVGID_2_)" fill="#0000FF" d="M184.941,193.713c-0.16,20.102-12.056,26.777-26.655,26.695
			c-14.604-0.091-26.388-6.909-26.229-27.015c0.103-13.141,15.177-29.011,23.056-35.358c0,0,6.216-0.916,7.009-0.394
			C170.665,163.328,185.04,180.741,184.941,193.713z"/>
		<path clip-path="url(#SVGID_2_)" fill="#FFFF00" d="M265.601,131.269c15.611,12.667,13.407,26.127,4.234,37.486
			c-9.183,11.355-21.864,16.312-37.476,3.647c-10.206-8.279-13.205-29.962-13.253-40.079c0,0,3.163-5.43,4.07-5.721
			C232.951,123.472,255.523,123.1,265.601,131.269z"/>
		<path clip-path="url(#SVGID_2_)" fill="#00FF00" d="M267.121,29.273c19.639-4.297,28.786,5.822,31.94,20.077
			c3.146,14.263-0.895,27.265-20.533,31.564c-12.837,2.813-31.65-8.372-39.589-14.648c0,0-2.268-5.859-1.931-6.75
			C240.66,49.925,254.452,32.051,267.121,29.273z"/>
		<path clip-path="url(#SVGID_2_)" fill="#B4C3D1" d="M42.803,76.732c-19.551-4.677-23.38-17.768-20.018-31.979
			c3.376-14.207,12.671-24.158,32.223-19.481c12.783,3.057,24.852,21.313,29.271,30.422c0,0-0.508,6.261-1.198,6.916
			C75.619,69.654,55.421,79.746,42.803,76.732z"/>
		<path clip-path="url(#SVGID_2_)" fill="#9400D3" d="M85.503,169.373c-15.854,12.362-28.474,7.186-37.482-4.308
			c-8.998-11.503-10.974-24.976,4.879-37.336c10.364-8.084,32.161-6.127,42.035-3.897c0,0,4.577,4.304,4.658,5.253
			C100.444,139.313,95.73,161.393,85.503,169.373z"/>
	</g>
</g>
</svg>
